<svg width="10" height="6" viewBox="0 0 10 6" fill="none" xmlns="http://www.w3.org/2000/svg">
<path d="M5.0013 3.92488L1.91378 0.837358C1.68598 0.609552 1.31663 0.609552 1.08882 0.837358C0.861017 1.06516 0.861017 1.43451 1.08882 1.66232L4.58882 5.16232C4.81663 5.39012 5.18598 5.39012 5.41378 5.16232L8.91378 1.66232C9.14159 1.43451 9.14159 1.06516 8.91378 0.837358C8.68598 0.609552 8.31663 0.609552 8.08882 0.837358L5.0013 3.92488Z" fill="#646464"/>
<mask id="mask0_1212_206" style="mask-type:luminance" maskUnits="userSpaceOnUse" x="0" y="0" width="10" height="6">
<path d="M5.0013 3.92488L1.91378 0.837358C1.68598 0.609552 1.31663 0.609552 1.08882 0.837358C0.861017 1.06516 0.861017 1.43451 1.08882 1.66232L4.58882 5.16232C4.81663 5.39012 5.18598 5.39012 5.41378 5.16232L8.91378 1.66232C9.14159 1.43451 9.14159 1.06516 8.91378 0.837358C8.68598 0.609552 8.31663 0.609552 8.08882 0.837358L5.0013 3.92488Z" fill="white"/>
</mask>
<g mask="url(#mask0_1212_206)">
</g>
</svg>
